<?xml version="1.0" encoding="utf-8"?>
<!-- Generator: Adobe Illustrator 18.1.1, SVG Export Plug-In . SVG Version: 6.00 Build 0)  -->
<svg version="1.1" id="Layer_1" xmlns="http://www.w3.org/2000/svg" xmlns:xlink="http://www.w3.org/1999/xlink" x="0px" y="0px"
	 width="411.3px" height="94.8px" viewBox="53.7 368 411.3 94.8" enable-background="new 53.7 368 411.3 94.8" xml:space="preserve"
	>
<g id="Lager_2">
</g>
<g id="Lager_1">
	<g>
		<path fill="#FFFFFF" d="M73,393.4h-9.4v16.3h-6.3v-41.3H73c8.1,0,13.2,5.3,13.2,12.5C86.3,388.1,81.1,393.4,73,393.4z M72.7,374
			h-9.1v13.8h9.1c4.4,0,7.3-2.5,7.3-6.9C80,376.6,77,374,72.7,374z"/>
		<path fill="#FFFFFF" d="M120.7,409.7l-8.7-17.4h-7.8v17.4h-6.3v-41.3h16c7.8,0,12.8,5.1,12.8,12.1c0,5.9-3.6,9.7-8.2,11l9.5,18.3
			L120.7,409.7L120.7,409.7z M113.5,374h-9.3v12.9h9.3c4.2,0,7-2.4,7-6.4C120.5,376.4,117.7,374,113.5,374z"/>
		<path fill="#FFFFFF" d="M164.3,405.6c-2.8,2.8-6.5,4.4-10.9,4.4s-8-1.6-10.9-4.4c-4.1-4.1-4-8.7-4-16.6c0-8-0.1-12.5,4-16.6
			c2.8-2.8,6.4-4.4,10.9-4.4c4.4,0,8.1,1.6,10.9,4.4c4.1,4.1,3.9,8.6,3.9,16.6S168.4,401.6,164.3,405.6z M159.5,376.2
			c-1.5-1.6-3.7-2.6-6.2-2.6c-2.4,0-4.7,1-6.2,2.6c-2,2.2-2.4,4.5-2.4,12.8s0.4,10.6,2.4,12.8c1.5,1.6,3.7,2.6,6.2,2.6
			c2.4,0,4.7-1,6.2-2.6c2-2.2,2.4-4.5,2.4-12.8C162,380.7,161.6,378.4,159.5,376.2z"/>
		<path fill="#FFFFFF" d="M206.3,405.3c-3.1,3.3-7,4.7-11.4,4.7c-4.3,0-8-1.6-10.9-4.4c-4.1-4.1-4-8.7-4-16.6c0-8-0.1-12.5,4-16.6
			c2.8-2.8,6.4-4.4,10.9-4.4c8.8,0,13.9,5.7,15,12.8h-6.3c-1-4.5-4.1-7.2-8.7-7.2c-2.4,0-4.6,1-6.1,2.6c-2,2.2-2.5,4.5-2.5,12.8
			s0.5,10.7,2.5,12.9c1.5,1.6,3.7,2.5,6.1,2.5c2.7,0,5.1-1,6.7-2.9c1.5-1.7,2.1-3.8,2.1-6.5v-2.3H195v-5.3h15v6.3
			C210,399,209.1,402.4,206.3,405.3z"/>
		<path fill="#FFFFFF" d="M246.2,409.7l-8.7-17.4h-7.8v17.4h-6.3v-41.3h16c7.8,0,12.8,5.1,12.8,12.1c0,5.9-3.6,9.7-8.2,11l9.5,18.3
			L246.2,409.7L246.2,409.7z M238.9,374h-9.3v12.9h9.3c4.2,0,7-2.4,7-6.4C245.9,376.4,243.1,374,238.9,374z"/>
		<path fill="#FFFFFF" d="M265.4,409.7v-41.3h26.4v5.6h-20.1v12.1h17.2v5.6h-17.2v12.4h20.1v5.6H265.4z"/>
		<path fill="#FFFFFF" d="M315.5,410.1c-6.2,0-10.7-1.5-14.6-5.5l4.2-4.1c3,3,6.3,3.9,10.6,3.9c5.4,0,8.5-2.3,8.5-6.3
			c0-1.8-0.5-3.3-1.6-4.3c-1-1-2.1-1.4-4.5-1.7l-4.9-0.7c-3.4-0.5-6-1.6-7.8-3.3c-2-1.9-3-4.5-3-7.9c0-7.2,5.2-12.1,13.8-12.1
			c5.5,0,9.3,1.4,12.8,4.7l-4,3.9c-2.6-2.4-5.5-3.2-9-3.2c-4.9,0-7.5,2.8-7.5,6.4c0,1.5,0.5,2.8,1.6,3.8c1,0.9,2.7,1.6,4.6,1.9
			l4.7,0.7c3.8,0.6,6,1.5,7.7,3.1c2.3,2,3.4,4.9,3.4,8.5C330.4,405.5,324.1,410.1,315.5,410.1z"/>
		<path fill="#FFFFFF" d="M353.2,410.1c-6.2,0-10.7-1.5-14.6-5.5l4.2-4.1c3,3,6.3,3.9,10.6,3.9c5.4,0,8.5-2.3,8.5-6.3
			c0-1.8-0.5-3.3-1.6-4.3c-1-1-2.1-1.4-4.5-1.7l-4.9-0.7c-3.4-0.5-6-1.6-7.8-3.3c-2-1.9-3-4.5-3-7.9c0-7.2,5.2-12.1,13.8-12.1
			c5.5,0,9.3,1.4,12.8,4.7l-4,3.9c-2.6-2.4-5.5-3.2-9-3.2c-4.9,0-7.5,2.8-7.5,6.4c0,1.5,0.5,2.8,1.6,3.8c1,0.9,2.7,1.6,4.6,1.9
			l4.7,0.7c3.8,0.6,6,1.5,7.7,3.1c2.3,2,3.4,4.9,3.4,8.5C368.1,405.5,361.9,410.1,353.2,410.1z"/>
		<path fill="#FFFFFF" d="M380.6,409.7v-41.3h6.3v41.3H380.6z"/>
		<path fill="#FFFFFF" d="M415.1,409.7h-4.9l-13.6-41.3h6.5l9.5,30.1l9.5-30.1h6.6L415.1,409.7z"/>
		<path fill="#FFFFFF" d="M438.5,409.7v-41.3h26.4v5.6h-20.1v12.1H462v5.6h-17.2v12.4h20.1v5.6H438.5z"/>
		<path fill="#FFFFFF" d="M68.3,462.8c-6.2,0-10.7-1.5-14.6-5.5l4.2-4.1c3,3,6.3,3.9,10.6,3.9c5.4,0,8.5-2.3,8.5-6.3
			c0-1.8-0.5-3.3-1.6-4.3c-1-1-2.1-1.4-4.5-1.7l-4.9-0.7c-3.4-0.5-6-1.6-7.8-3.3c-2-1.9-3-4.5-3-7.9c0-7.2,5.2-12.1,13.8-12.1
			c5.5,0,9.3,1.4,12.8,4.7l-4,3.9c-2.6-2.4-5.5-3.2-9-3.2c-4.9,0-7.5,2.8-7.5,6.4c0,1.5,0.5,2.8,1.6,3.8c1,0.9,2.7,1.6,4.6,1.9
			l4.7,0.7c3.8,0.6,6,1.5,7.7,3.1c2.3,2,3.4,4.9,3.4,8.5C83.2,458.3,77,462.8,68.3,462.8z"/>
		<path fill="#FFFFFF" d="M119.4,462.5l-2.8-8.3h-16.3l-2.8,8.3h-6.7l15.2-41.3h5.1l15.2,41.3H119.4z M108.6,430.5l-6.4,18.3h12.7
			L108.6,430.5z"/>
		<path fill="#FFFFFF" d="M142.3,426.8v12.6h17.2v5.6h-17.2v17.5H136v-41.4h26.4v5.6h-20.1V426.8z"/>
		<path fill="#FFFFFF" d="M174.1,462.5v-41.4h26.4v5.6h-20.1v12.1h17.2v5.6h-17.2v12.4h20.1v5.6L174.1,462.5L174.1,462.5z"/>
		<path fill="#FFFFFF" d="M227.1,426.8v35.7h-6.3v-35.7h-11.4v-5.7h29v5.6h-11.3V426.8z"/>
		<path fill="#FFFFFF" d="M263.2,445.5v17H257v-17l-12.4-24.4h6.9l8.7,18.2l8.7-18.2h6.9L263.2,445.5z"/>
	</g>
	<g>
		<g>
			<path fill="#FFFFFF" d="M450.7,423.1c1.9,0,3.6,1,4.5,2.7l7.2,13.6c0.8,1.5,0.8,3.3,0,4.8l-7.2,13.6c-0.9,1.7-2.6,2.7-4.5,2.7
				H299.9c-1.9,0-3.6-1-4.5-2.7l-7.2-13.6c-0.8-1.5-0.8-3.3,0-4.8l7.2-13.6c0.9-1.7,2.6-2.7,4.5-2.7H450.7 M450.7,421.1H299.9
				c-2.6,0-5,1.4-6.3,3.8l-7.2,13.6c-1.1,2.1-1.1,4.6,0,6.7l7.2,13.6c1.2,2.3,3.6,3.8,6.3,3.8h150.8c2.6,0,5-1.4,6.3-3.8l7.2-13.6
				c1.1-2.1,1.1-4.6,0-6.7l-7.2-13.6C455.7,422.6,453.3,421.1,450.7,421.1L450.7,421.1z"/>
		</g>
	</g>
	<g>
		<path fill="#FFFFFF" d="M310.3,448c-1.9,0-3.3-0.4-4.5-1.7l1.3-1.3c0.9,0.9,1.9,1.2,3.2,1.2c1.6,0,2.6-0.7,2.6-1.9
			c0-0.5-0.2-1-0.5-1.3s-0.6-0.4-1.4-0.5l-1.5-0.2c-1-0.1-1.8-0.5-2.4-1c-0.6-0.6-0.9-1.4-0.9-2.4c0-2.2,1.6-3.7,4.2-3.7
			c1.7,0,2.8,0.4,3.9,1.4l-1.2,1.2c-0.8-0.7-1.7-1-2.7-1c-1.5,0-2.3,0.9-2.3,2c0,0.5,0.1,0.9,0.5,1.2c0.3,0.3,0.8,0.5,1.4,0.6
			l1.4,0.2c1.2,0.2,1.8,0.5,2.4,0.9c0.7,0.6,1,1.5,1,2.6C314.8,446.6,312.9,448,310.3,448z"/>
		<path fill="#FFFFFF" d="M325,447.9l-0.9-2.5h-5l-0.9,2.5h-2l4.6-12.6h1.5l4.6,12.6H325z M321.7,438.1l-2,5.6h3.9L321.7,438.1z"/>
		<path fill="#FFFFFF" d="M331.1,437v3.8h5.2v1.7h-5.2v5.3h-1.9v-12.6h8.1v1.7h-6.2V437z"/>
		<path fill="#FFFFFF" d="M339.9,447.9v-12.6h8.1v1.7h-6.2v3.7h5.2v1.7h-5.2v3.8h6.2v1.7L339.9,447.9L339.9,447.9z"/>
		<path fill="#FFFFFF" d="M355.2,437v10.9h-1.9V437h-3.5v-1.7h8.9v1.7H355.2z"/>
		<path fill="#FFFFFF" d="M365.3,442.7v5.2h-1.9v-5.2l-3.8-7.4h2.1l2.6,5.5l2.6-5.5h2.1L365.3,442.7z"/>
		<path fill="#FFFFFF" d="M377.7,437v3.8h5.2v1.7h-5.2v5.3h-1.9v-12.6h8.1v1.7h-6.2V437z"/>
		<path fill="#FFFFFF" d="M393.6,446.6c-0.9,0.9-2,1.3-3.3,1.3s-2.4-0.5-3.3-1.3c-1.2-1.2-1.2-2.6-1.2-5.1c0-2.4,0-3.8,1.2-5.1
			c0.9-0.9,2-1.3,3.3-1.3s2.5,0.5,3.3,1.3c1.2,1.2,1.2,2.6,1.2,5.1C394.8,444,394.8,445.4,393.6,446.6z M392.1,437.6
			c-0.4-0.5-1.1-0.8-1.9-0.8c-0.7,0-1.4,0.3-1.9,0.8c-0.6,0.7-0.7,1.4-0.7,3.9s0.1,3.2,0.7,3.9c0.4,0.5,1.1,0.8,1.9,0.8
			c0.7,0,1.4-0.3,1.9-0.8c0.6-0.7,0.7-1.4,0.7-3.9C392.9,439,392.8,438.3,392.1,437.6z"/>
		<path fill="#FFFFFF" d="M405,447.9l-2.7-5.3h-2.4v5.3H398v-12.6h4.9c2.4,0,3.9,1.5,3.9,3.7c0,1.8-1.1,3-2.5,3.4l2.9,5.6H405V447.9
			z M402.7,437h-2.8v4h2.8c1.3,0,2.1-0.7,2.1-2S404,437,402.7,437z"/>
		<path fill="#FFFFFF" d="M421.8,447.9l-0.9-2.5h-5l-0.9,2.5h-2l4.6-12.6h1.5l4.6,12.6H421.8z M418.5,438.1l-2,5.6h3.9L418.5,438.1z
			"/>
		<path fill="#FFFFFF" d="M426,447.9v-12.6h1.9v10.8h6.1v1.7L426,447.9L426,447.9z"/>
		<path fill="#FFFFFF" d="M436.5,447.9v-12.6h1.9v10.8h6.1v1.7L436.5,447.9L436.5,447.9z"/>
	</g>
</g>
</svg>
